<mxfile host="Electron" modified="2023-12-16T14:52:51.963Z" agent="Mozilla/5.0 (Windows NT 10.0; Win64; x64) AppleWebKit/537.36 (KHTML, like Gecko) draw.io/21.6.8 Chrome/114.0.5735.289 Electron/25.5.0 Safari/537.36" etag="BE5GFpQq1cHXTJLNm98P" version="21.6.8" type="device">
  <diagram name="Page-1" id="J-OSKuC8xA3IxaBV11Wi">
    <mxGraphModel dx="1434" dy="2053" grid="1" gridSize="10" guides="1" tooltips="1" connect="1" arrows="1" fold="1" page="1" pageScale="1" pageWidth="827" pageHeight="1169" math="0" shadow="0">
      <root>
        <mxCell id="0" />
        <mxCell id="1" parent="0" />
        <mxCell id="v4cNoADauksFELwieGKe-1" value="" style="rounded=1;whiteSpace=wrap;html=1;" vertex="1" parent="1">
          <mxGeometry x="760" y="110" width="230" height="490" as="geometry" />
        </mxCell>
        <mxCell id="v4cNoADauksFELwieGKe-3" value="" style="rounded=1;whiteSpace=wrap;html=1;" vertex="1" parent="1">
          <mxGeometry x="370" y="110" width="230" height="490" as="geometry" />
        </mxCell>
        <mxCell id="v4cNoADauksFELwieGKe-2" value="" style="rounded=1;whiteSpace=wrap;html=1;" vertex="1" parent="1">
          <mxGeometry x="597" y="110" width="163" height="490" as="geometry" />
        </mxCell>
        <mxCell id="v4cNoADauksFELwieGKe-4" value="" style="rounded=1;whiteSpace=wrap;html=1;" vertex="1" parent="1">
          <mxGeometry x="110" y="110" width="260" height="490" as="geometry" />
        </mxCell>
        <mxCell id="v4cNoADauksFELwieGKe-5" value="User Device" style="rounded=0;whiteSpace=wrap;html=1;" vertex="1" parent="1">
          <mxGeometry x="150" y="160" width="120" height="60" as="geometry" />
        </mxCell>
        <mxCell id="v4cNoADauksFELwieGKe-6" value="System" style="rounded=0;whiteSpace=wrap;html=1;" vertex="1" parent="1">
          <mxGeometry x="414" y="160" width="120" height="60" as="geometry" />
        </mxCell>
        <mxCell id="v4cNoADauksFELwieGKe-7" value="Database" style="rounded=0;whiteSpace=wrap;html=1;" vertex="1" parent="1">
          <mxGeometry x="620" y="160" width="120" height="60" as="geometry" />
        </mxCell>
        <mxCell id="v4cNoADauksFELwieGKe-9" value="Cloud Storage" style="rounded=0;whiteSpace=wrap;html=1;" vertex="1" parent="1">
          <mxGeometry x="815" y="160" width="120" height="60" as="geometry" />
        </mxCell>
        <mxCell id="v4cNoADauksFELwieGKe-10" value="End" style="rounded=0;whiteSpace=wrap;html=1;" vertex="1" parent="1">
          <mxGeometry x="110" y="600" width="990" height="60" as="geometry" />
        </mxCell>
        <mxCell id="v4cNoADauksFELwieGKe-11" value="" style="endArrow=none;dashed=1;html=1;rounded=0;entryX=0.5;entryY=1;entryDx=0;entryDy=0;exitX=0.098;exitY=0;exitDx=0;exitDy=0;exitPerimeter=0;" edge="1" parent="1" source="v4cNoADauksFELwieGKe-10" target="v4cNoADauksFELwieGKe-5">
          <mxGeometry width="50" height="50" relative="1" as="geometry">
            <mxPoint x="350" y="350" as="sourcePoint" />
            <mxPoint x="400" y="300" as="targetPoint" />
          </mxGeometry>
        </mxCell>
        <mxCell id="v4cNoADauksFELwieGKe-12" value="" style="endArrow=none;dashed=1;html=1;rounded=0;entryX=0.5;entryY=1;entryDx=0;entryDy=0;exitX=0.09;exitY=0;exitDx=0;exitDy=0;exitPerimeter=0;" edge="1" parent="1">
          <mxGeometry width="50" height="50" relative="1" as="geometry">
            <mxPoint x="474" y="600" as="sourcePoint" />
            <mxPoint x="474" y="220" as="targetPoint" />
            <Array as="points">
              <mxPoint x="474" y="410" />
            </Array>
          </mxGeometry>
        </mxCell>
        <mxCell id="v4cNoADauksFELwieGKe-13" value="" style="endArrow=none;dashed=1;html=1;rounded=0;entryX=0.5;entryY=1;entryDx=0;entryDy=0;exitX=0.09;exitY=0;exitDx=0;exitDy=0;exitPerimeter=0;" edge="1" parent="1">
          <mxGeometry width="50" height="50" relative="1" as="geometry">
            <mxPoint x="674.5" y="600" as="sourcePoint" />
            <mxPoint x="674.5" y="220" as="targetPoint" />
            <Array as="points">
              <mxPoint x="674.5" y="410" />
            </Array>
          </mxGeometry>
        </mxCell>
        <mxCell id="v4cNoADauksFELwieGKe-14" value="" style="endArrow=none;dashed=1;html=1;rounded=0;entryX=0.5;entryY=1;entryDx=0;entryDy=0;exitX=0.09;exitY=0;exitDx=0;exitDy=0;exitPerimeter=0;" edge="1" parent="1">
          <mxGeometry width="50" height="50" relative="1" as="geometry">
            <mxPoint x="869.5" y="600" as="sourcePoint" />
            <mxPoint x="869.5" y="220" as="targetPoint" />
            <Array as="points">
              <mxPoint x="869.5" y="410" />
            </Array>
          </mxGeometry>
        </mxCell>
        <mxCell id="v4cNoADauksFELwieGKe-15" value="" style="endArrow=classic;html=1;rounded=0;" edge="1" parent="1">
          <mxGeometry width="50" height="50" relative="1" as="geometry">
            <mxPoint x="210" y="270" as="sourcePoint" />
            <mxPoint x="470" y="270" as="targetPoint" />
          </mxGeometry>
        </mxCell>
        <mxCell id="v4cNoADauksFELwieGKe-16" value="&lt;font style=&quot;font-size: 10px;&quot;&gt;Clicks &quot;Edit Recipe&quot; on the Recipe Page&lt;/font&gt;" style="text;html=1;align=center;verticalAlign=middle;resizable=0;points=[];autosize=1;strokeColor=none;fillColor=none;" vertex="1" parent="1">
          <mxGeometry x="235" y="240" width="200" height="30" as="geometry" />
        </mxCell>
        <mxCell id="v4cNoADauksFELwieGKe-17" value="" style="endArrow=classic;html=1;rounded=0;dashed=1;" edge="1" parent="1">
          <mxGeometry width="50" height="50" relative="1" as="geometry">
            <mxPoint x="470" y="320" as="sourcePoint" />
            <mxPoint x="210" y="320" as="targetPoint" />
          </mxGeometry>
        </mxCell>
        <mxCell id="v4cNoADauksFELwieGKe-18" value="&lt;div style=&quot;font-size: 10px;&quot;&gt;&lt;font style=&quot;font-size: 10px;&quot;&gt;&amp;nbsp;Directs to recipe edit page&lt;/font&gt;&lt;/div&gt;&lt;div style=&quot;font-size: 10px;&quot;&gt;&lt;br style=&quot;font-size: 10px;&quot;&gt;&lt;/div&gt;" style="text;html=1;strokeColor=none;fillColor=none;align=center;verticalAlign=middle;whiteSpace=wrap;rounded=0;fontSize=10;" vertex="1" parent="1">
          <mxGeometry x="260" y="290" width="170" height="30" as="geometry" />
        </mxCell>
        <mxCell id="v4cNoADauksFELwieGKe-19" value="" style="endArrow=classic;html=1;rounded=0;" edge="1" parent="1">
          <mxGeometry width="50" height="50" relative="1" as="geometry">
            <mxPoint x="210" y="370" as="sourcePoint" />
            <mxPoint x="470" y="370" as="targetPoint" />
          </mxGeometry>
        </mxCell>
        <mxCell id="v4cNoADauksFELwieGKe-20" value="&lt;div style=&quot;&quot;&gt;Makes updates on the recipe. Then Submits&lt;br&gt;&lt;/div&gt;" style="text;html=1;strokeColor=none;fillColor=none;align=center;verticalAlign=middle;whiteSpace=wrap;rounded=0;fontSize=10;" vertex="1" parent="1">
          <mxGeometry x="260" y="340" width="170" height="30" as="geometry" />
        </mxCell>
        <mxCell id="v4cNoADauksFELwieGKe-21" value="" style="endArrow=classic;html=1;rounded=0;" edge="1" parent="1">
          <mxGeometry width="50" height="50" relative="1" as="geometry">
            <mxPoint x="485" y="490" as="sourcePoint" />
            <mxPoint x="665" y="490" as="targetPoint" />
          </mxGeometry>
        </mxCell>
        <mxCell id="v4cNoADauksFELwieGKe-22" value="&lt;div style=&quot;&quot;&gt;Updates recipe information&lt;br&gt;&lt;/div&gt;" style="text;html=1;strokeColor=none;fillColor=none;align=center;verticalAlign=middle;whiteSpace=wrap;rounded=0;fontSize=10;" vertex="1" parent="1">
          <mxGeometry x="490" y="460" width="170" height="30" as="geometry" />
        </mxCell>
        <mxCell id="v4cNoADauksFELwieGKe-28" value="" style="endArrow=classic;html=1;rounded=0;exitX=0;exitY=1;exitDx=0;exitDy=0;entryX=1;entryY=1;entryDx=0;entryDy=0;" edge="1" parent="1" source="v4cNoADauksFELwieGKe-22" target="v4cNoADauksFELwieGKe-29">
          <mxGeometry width="50" height="50" relative="1" as="geometry">
            <mxPoint x="610" y="400" as="sourcePoint" />
            <mxPoint x="980" y="490" as="targetPoint" />
          </mxGeometry>
        </mxCell>
        <mxCell id="v4cNoADauksFELwieGKe-29" value="&lt;div style=&quot;&quot;&gt;Update Recipe Images&lt;/div&gt;" style="text;html=1;strokeColor=none;fillColor=none;align=center;verticalAlign=middle;whiteSpace=wrap;rounded=0;fontSize=10;" vertex="1" parent="1">
          <mxGeometry x="700" y="460" width="170" height="30" as="geometry" />
        </mxCell>
        <mxCell id="v4cNoADauksFELwieGKe-30" value="" style="endArrow=classic;html=1;rounded=0;dashed=1;exitX=0.25;exitY=1;exitDx=0;exitDy=0;" edge="1" parent="1" source="v4cNoADauksFELwieGKe-50">
          <mxGeometry width="50" height="50" relative="1" as="geometry">
            <mxPoint x="980" y="560" as="sourcePoint" />
            <mxPoint x="210" y="560" as="targetPoint" />
          </mxGeometry>
        </mxCell>
        <mxCell id="v4cNoADauksFELwieGKe-31" value="&lt;div style=&quot;&quot;&gt;Shows Recipe updated recipe on Recipe Page&lt;/div&gt;" style="text;html=1;strokeColor=none;fillColor=none;align=center;verticalAlign=middle;whiteSpace=wrap;rounded=0;fontSize=10;" vertex="1" parent="1">
          <mxGeometry x="210" y="520" width="170" height="30" as="geometry" />
        </mxCell>
        <mxCell id="v4cNoADauksFELwieGKe-43" value="" style="rounded=0;whiteSpace=wrap;html=1;" vertex="1" parent="1">
          <mxGeometry x="475" y="250" width="20" height="270" as="geometry" />
        </mxCell>
        <mxCell id="v4cNoADauksFELwieGKe-33" value="User" style="ellipse;whiteSpace=wrap;html=1;" vertex="1" parent="1">
          <mxGeometry x="180" y="20" width="120" height="80" as="geometry" />
        </mxCell>
        <mxCell id="v4cNoADauksFELwieGKe-34" value="Hungerger Servers" style="ellipse;whiteSpace=wrap;html=1;" vertex="1" parent="1">
          <mxGeometry x="413.5" y="20" width="120" height="80" as="geometry" />
        </mxCell>
        <mxCell id="v4cNoADauksFELwieGKe-35" value="Hungerger Database" style="ellipse;whiteSpace=wrap;html=1;" vertex="1" parent="1">
          <mxGeometry x="620" y="20" width="120" height="80" as="geometry" />
        </mxCell>
        <mxCell id="v4cNoADauksFELwieGKe-36" value="3rd Party Providers" style="ellipse;whiteSpace=wrap;html=1;" vertex="1" parent="1">
          <mxGeometry x="815" y="20" width="120" height="80" as="geometry" />
        </mxCell>
        <mxCell id="v4cNoADauksFELwieGKe-38" value="Edit Recipe" style="text;html=1;strokeColor=none;fillColor=none;align=center;verticalAlign=middle;whiteSpace=wrap;rounded=0;" vertex="1" parent="1">
          <mxGeometry x="630" y="-30" width="60" height="30" as="geometry" />
        </mxCell>
        <mxCell id="v4cNoADauksFELwieGKe-39" value="&lt;div style=&quot;&quot;&gt;&lt;b&gt;{Checks if image is added or deleted}&lt;/b&gt;&lt;br&gt;&lt;/div&gt;" style="text;html=1;strokeColor=none;fillColor=none;align=center;verticalAlign=middle;whiteSpace=wrap;rounded=0;fontSize=10;" vertex="1" parent="1">
          <mxGeometry x="460" y="400" width="170" height="30" as="geometry" />
        </mxCell>
        <mxCell id="v4cNoADauksFELwieGKe-41" value="" style="rounded=0;whiteSpace=wrap;html=1;" vertex="1" parent="1">
          <mxGeometry x="190" y="270" width="20" height="290" as="geometry" />
        </mxCell>
        <mxCell id="v4cNoADauksFELwieGKe-32" value="&lt;div style=&quot;&quot;&gt;&lt;b&gt;{Validates information}&lt;/b&gt;&lt;br&gt;&lt;/div&gt;" style="text;html=1;strokeColor=none;fillColor=none;align=center;verticalAlign=middle;whiteSpace=wrap;rounded=0;fontSize=10;" vertex="1" parent="1">
          <mxGeometry x="450" y="370" width="170" height="30" as="geometry" />
        </mxCell>
        <mxCell id="v4cNoADauksFELwieGKe-44" value="" style="endArrow=classic;html=1;rounded=0;dashed=1;" edge="1" parent="1">
          <mxGeometry width="50" height="50" relative="1" as="geometry">
            <mxPoint x="680" y="520" as="sourcePoint" />
            <mxPoint x="470" y="520" as="targetPoint" />
          </mxGeometry>
        </mxCell>
        <mxCell id="v4cNoADauksFELwieGKe-47" value="&lt;div style=&quot;&quot;&gt;Acknowledges the success of infomration update&lt;/div&gt;" style="text;html=1;strokeColor=none;fillColor=none;align=center;verticalAlign=middle;whiteSpace=wrap;rounded=0;fontSize=10;" vertex="1" parent="1">
          <mxGeometry x="500" y="490" width="170" height="30" as="geometry" />
        </mxCell>
        <mxCell id="v4cNoADauksFELwieGKe-49" value="" style="rounded=0;whiteSpace=wrap;html=1;" vertex="1" parent="1">
          <mxGeometry x="670" y="490" width="20" height="30" as="geometry" />
        </mxCell>
        <mxCell id="v4cNoADauksFELwieGKe-50" value="" style="rounded=0;whiteSpace=wrap;html=1;" vertex="1" parent="1">
          <mxGeometry x="860" y="490" width="20" height="70" as="geometry" />
        </mxCell>
      </root>
    </mxGraphModel>
  </diagram>
</mxfile>
